<?xml version="1.0" encoding="UTF-8" standalone="no"?>
<svg
   sodipodi:docname="gmbinder.svg"
   inkscape:version="1.4 (86a8ad7, 2024-10-11)"
   id="svg8"
   version="1.1"
   viewBox="0 0 95.25 35.732819"
   height="35.732819mm"
   width="95.25mm"
   xmlns:inkscape="http://www.inkscape.org/namespaces/inkscape"
   xmlns:sodipodi="http://sodipodi.sourceforge.net/DTD/sodipodi-0.dtd"
   xmlns="http://www.w3.org/2000/svg"
   xmlns:svg="http://www.w3.org/2000/svg"
   xmlns:rdf="http://www.w3.org/1999/02/22-rdf-syntax-ns#"
   xmlns:cc="http://creativecommons.org/ns#"
   xmlns:dc="http://purl.org/dc/elements/1.1/">
  <defs
     id="defs2" />
  <sodipodi:namedview
     inkscape:window-maximized="1"
     inkscape:window-y="-9"
     inkscape:window-x="-9"
     inkscape:window-height="1361"
     inkscape:window-width="2560"
     showgrid="false"
     inkscape:document-rotation="0"
     inkscape:current-layer="layer1"
     inkscape:document-units="mm"
     inkscape:cy="56.82108"
     inkscape:cx="105.56094"
     inkscape:zoom="1.979899"
     inkscape:pageshadow="2"
     inkscape:pageopacity="0"
     borderopacity="1.0"
     bordercolor="#666666"
     pagecolor="#6b6b6b"
     id="base"
     inkscape:showpageshadow="2"
     inkscape:pagecheckerboard="0"
     inkscape:deskcolor="#d1d1d1" />
  <metadata
     id="metadata5">
    <rdf:RDF>
      <cc:Work
         rdf:about="">
        <dc:format>image/svg+xml</dc:format>
        <dc:type
           rdf:resource="http://purl.org/dc/dcmitype/StillImage" />
      </cc:Work>
    </rdf:RDF>
  </metadata>
  <g
     id="layer1"
     inkscape:groupmode="layer"
     inkscape:label="Layer 1"
     transform="translate(-34.017852,-118.33026)">
    <path
       sodipodi:nodetypes="ccssscsssssssssssssssccccccccsssssscccccccssscsssccsscsscsccccccccccccssssssssssssssscsscc"
       id="path847"
       d="m 34.019479,149.7636 0.0016,-4.29948 5.521174,-9.26041 c 7.539369,-12.64543 10.103975,-16.88619 10.400466,-17.19792 0.330751,-0.34775 -2.758996,5.61253 -8.523652,16.44256 l -4.667946,8.76965 2.932838,0.40906 c 3.142196,0.43826 8.78897,1.16073 10.738047,1.37387 0.654843,0.0716 2.38125,0.30061 3.836458,0.50888 1.455209,0.20827 4.491303,0.62778 6.746876,0.93223 8.153218,1.10049 16.316977,2.23181 19.015539,2.63512 1.251479,0.18704 6.845867,-0.3416 9.559462,-0.90332 0.627283,-0.12985 4.376098,-0.64219 8.731251,-1.19327 1.091406,-0.1381 3.234538,-0.43158 4.762508,-0.65216 2.72508,-0.39341 7.85137,-1.07499 14.15521,-1.88204 5.68959,-0.72841 9.12812,-1.22838 9.12812,-1.32725 0,-0.10253 -0.72328,-1.46803 -3.84227,-7.25396 -3.61764,-6.71094 -9.39207,-17.8101 -9.30905,-17.89313 0.0456,-0.0456 0.80572,1.13399 1.68918,2.62127 0.88346,1.48729 3.42413,5.74025 5.64595,9.45103 2.22182,3.71078 5.09423,8.51597 6.38314,10.6782 l 2.34347,3.93132 v 4.20461 4.20462 H 81.642855 34.017852 l 0.0016,-4.29948 z m 43.919209,-5.12837 c -0.363802,-0.0525 -2.14974,-0.28281 -3.96875,-0.51191 -3.963861,-0.49923 -10.156117,-1.29916 -14.155209,-1.8286 -1.60073,-0.21192 -4.874949,-0.63864 -7.276043,-0.94827 -2.401093,-0.30962 -5.169297,-0.68143 -6.151562,-0.82623 -1.711098,-0.25225 -2.108978,-0.54714 -1.558012,-1.15474 0.125359,-0.13825 2.590897,-4.92456 5.478973,-10.63625 l 5.251048,-10.3849 h 11.983528 11.983527 v 2.24896 2.24896 H 70.433514 61.34084 l -0.586454,1.65364 c -0.731171,2.06172 -2.268519,6.22474 -2.985889,8.08558 -0.314868,0.81676 -0.442966,1.50081 -0.306007,1.6341 0.129564,0.12609 1.485728,0.30269 3.013697,0.39244 1.527969,0.0897 4.3747,0.33751 6.326069,0.55059 1.951371,0.21308 3.597267,0.33809 3.65755,0.27781 0.202411,-0.20242 0.706104,-3.58014 0.556223,-3.73002 -0.174551,-0.17455 -2.521408,-0.3487 -5.083554,-0.37722 l -1.819754,-0.0203 0.178906,-1.12448 c 0.0984,-0.61846 0.365022,-1.76618 0.592497,-2.55049 l 0.413597,-1.42601 3.476213,0.16581 c 1.911916,0.0912 5.113322,0.2442 7.114233,0.34002 l 3.638021,0.1742 v 8.95735 c 0,9.88132 0.151818,9.0407 -1.5875,8.78992 z m 5.291667,-13.02755 v -13.26335 l 4.29948,0.0173 4.299479,0.0172 3.161348,3.45205 3.161347,3.45205 1.732349,-3.47634 1.732352,-3.47633 3.54959,0.0732 3.5496,0.0732 0.72679,1.85209 c 0.39973,1.01864 1.5244,3.93567 2.49925,6.48229 2.35634,6.15547 3.45361,8.99112 4.39475,11.35724 0.42977,1.0805 0.72087,2.1223 0.64688,2.31511 -0.0826,0.21526 -0.57175,0.35096 -1.26731,0.35157 -0.62303,5.3e-4 -2.20434,0.17707 -3.51403,0.39226 -3.7001,0.60794 -3.7659,0.59633 -4.10408,-0.72399 -0.46095,-1.79963 -1.32318,-4.86166 -2.28181,-8.10332 -0.48958,-1.65555 -0.89015,-3.25694 -0.89015,-3.55865 0,-0.35533 -0.0906,-0.45793 -0.25728,-0.29128 -0.19913,0.19914 -2.7134,6.29034 -3.78514,9.1701 -0.19233,0.51679 -0.67355,0.0375 -5.455826,-5.4341 -1.501749,-1.71821 -2.78896,-3.06552 -2.860466,-2.99401 -0.120272,0.12027 0.03744,1.55084 1.149897,10.43033 0.224216,1.78969 0.34135,3.4268 0.260295,3.63802 -0.09274,0.24169 -0.518242,0.38445 -1.147866,0.38511 -0.55027,5.3e-4 -2.072053,0.17193 -3.38174,0.38077 -1.309688,0.20883 -3.244454,0.46186 -4.29948,0.56229 l -1.918229,0.18259 z"
       style="fill:#ffffff;stroke-width:0.264583" />
  </g>
</svg>
