<?xml version="1.0" encoding="UTF-8" standalone="no"?>
<svg
   inkscape:version="1.4 (86a8ad7, 2024-10-11)"
   sodipodi:docname="homebrewery.svg"
   id="svg861"
   data-reactid="14"
   enable-background="new 0 0 90 90"
   viewBox="0 0 78.153999 85.365082"
   y="0px"
   x="0px"
   version="1.1"
   width="78.153999"
   height="85.365082"
   xmlns:inkscape="http://www.inkscape.org/namespaces/inkscape"
   xmlns:sodipodi="http://sodipodi.sourceforge.net/DTD/sodipodi-0.dtd"
   xmlns="http://www.w3.org/2000/svg"
   xmlns:svg="http://www.w3.org/2000/svg"
   xmlns:rdf="http://www.w3.org/1999/02/22-rdf-syntax-ns#"
   xmlns:cc="http://creativecommons.org/ns#"
   xmlns:dc="http://purl.org/dc/elements/1.1/">
  <metadata
     id="metadata867">
    <rdf:RDF>
      <cc:Work
         rdf:about="">
        <dc:format>image/svg+xml</dc:format>
        <dc:type
           rdf:resource="http://purl.org/dc/dcmitype/StillImage" />
      </cc:Work>
    </rdf:RDF>
  </metadata>
  <defs
     id="defs865" />
  <sodipodi:namedview
     inkscape:current-layer="svg861"
     inkscape:window-maximized="1"
     inkscape:window-y="-9"
     inkscape:window-x="-9"
     inkscape:cy="53.149225"
     inkscape:cx="39.050388"
     inkscape:zoom="10.32"
     showgrid="false"
     id="namedview863"
     inkscape:window-height="1361"
     inkscape:window-width="2560"
     inkscape:pageshadow="2"
     inkscape:pageopacity="0"
     guidetolerance="10"
     gridtolerance="10"
     objecttolerance="10"
     borderopacity="1"
     bordercolor="#666666"
     pagecolor="#636363"
     inkscape:showpageshadow="2"
     inkscape:pagecheckerboard="0"
     inkscape:deskcolor="#d1d1d1" />
  <path
     id="path851"
     data-reactid="15"
     d="m 19.442,23.222 c 0,1.906 8.793,3.454 19.636,3.454 10.848,0 19.638,-1.547 19.638,-3.454 0,-1.12 -3.056,-2.117 -7.774,-2.75 -1.418,1.891 -3.659,3.133 -6.208,3.133 -2.85,0 -5.315,-1.547 -6.67,-3.833 -10.368,0.095 -18.622,1.602 -18.622,3.45 z"
     style="fill:#ffffff" />
  <path
     id="path853"
     data-reactid="16"
     d="m 78.154,51.824 c 0,-8.68 -2.868,-17.005 -8.144,-23.829 1.106,-1.399 1.41,-2.771 1.41,-3.854 0,-6.574 -10.245,-9.358 -19.264,-10.533 0.209,0.706 0.359,1.439 0.359,2.215 0,0.09 -0.022,0.17 -0.028,0.26 v 0 c -0.028,0.853 -0.195,1.667 -0.479,2.429 9.106,1.282 14.508,3.754 14.508,5.63 0,2.644 -10.688,6.486 -27.439,6.486 -16.748,0 -27.438,-3.842 -27.438,-6.486 0,-2.542 9.904,-6.183 25.559,-6.459 -0.098,-0.396 -0.159,-0.807 -0.2,-1.223 0.006,0 0.013,0 0.017,0 -0.017,-0.213 -0.063,-0.417 -0.063,-0.636 0,-1.084 0.226,-2.119 0.628,-3.058 -6.788,0.129 -30.846,1.299 -30.846,11.376 0,1.083 0.305,2.455 1.411,3.854 C 2.869,34.819 0,43.145 0,51.825 0,63.373 5.187,71.932 14.693,76.94 c -0.902,3.146 -1.391,7.056 1.111,8.181 2.626,1.178 5.364,-2.139 7.111,-5.005 4.73,1.261 10.13,1.923 16.161,1.923 6.034,0 11.428,-0.661 16.158,-1.922 1.75,2.865 4.493,6.18 7.112,5.004 2.504,-1.123 2.014,-5.035 1.113,-8.179 9.509,-5.011 14.695,-13.571 14.695,-25.118 z M 64.469,29.074 c 5.43,6.046 8.78,14 8.78,22.75 0,20.919 -18.582,25.309 -34.171,25.309 -15.587,0 -34.17,-4.39 -34.17,-25.309 0,-8.75 3.35,-16.7 8.781,-22.753 5.561,2.643 15.502,4.009 25.389,4.009 9.887,-10e-4 19.83,-1.367 25.391,-4.006 z"
     style="fill:#ffffff" />
  <path
     id="path855"
     data-reactid="17"
     d="m 44.733,21.056 c 2.892,0 5.234,-2.341 5.234,-5.233 0,-2.887 -2.343,-5.23 -5.234,-5.23 -2.887,0 -5.231,2.343 -5.231,5.23 0,2.891 2.345,5.233 5.231,5.233 z"
     style="fill:#ffffff" />
  <circle
     id="circle857"
     data-reactid="18"
     r="3.595"
     cy="7.7709999"
     cx="56.983997"
     style="fill:#ffffff" />
  <circle
     id="circle859"
     data-reactid="19"
     r="2.73"
     cy="2.73"
     cx="46.695"
     style="fill:#ffffff" />
</svg>
