<?xml version="1.0" encoding="UTF-8" standalone="no"?>
<svg
   xmlns:dc="http://purl.org/dc/elements/1.1/"
   xmlns:cc="http://creativecommons.org/ns#"
   xmlns:rdf="http://www.w3.org/1999/02/22-rdf-syntax-ns#"
   xmlns:svg="http://www.w3.org/2000/svg"
   xmlns="http://www.w3.org/2000/svg"
   xmlns:sodipodi="http://sodipodi.sourceforge.net/DTD/sodipodi-0.dtd"
   xmlns:inkscape="http://www.inkscape.org/namespaces/inkscape"
   inkscape:version="1.0 (4035a4fb49, 2020-05-01)"
   sodipodi:docname="homebrewery.svg"
   id="svg861"
   data-reactid="14"
   enable-background="new 0 0 90 90"
   viewBox="0 0 90 112.5"
   y="0px"
   x="0px"
   version="1.1">
  <metadata
     id="metadata867">
    <rdf:RDF>
      <cc:Work
         rdf:about="">
        <dc:format>image/svg+xml</dc:format>
        <dc:type
           rdf:resource="http://purl.org/dc/dcmitype/StillImage" />
        <dc:title></dc:title>
      </cc:Work>
    </rdf:RDF>
  </metadata>
  <defs
     id="defs865" />
  <sodipodi:namedview
     inkscape:current-layer="svg861"
     inkscape:window-maximized="1"
     inkscape:window-y="-9"
     inkscape:window-x="-9"
     inkscape:cy="55.571705"
     inkscape:cx="45"
     inkscape:zoom="10.32"
     showgrid="false"
     id="namedview863"
     inkscape:window-height="1361"
     inkscape:window-width="2560"
     inkscape:pageshadow="2"
     inkscape:pageopacity="0"
     guidetolerance="10"
     gridtolerance="10"
     objecttolerance="10"
     borderopacity="1"
     bordercolor="#666666"
     pagecolor="#ffffff" />
  <path
     id="path851"
     data-reactid="15"
     d="M25.363,25.54c0,1.906,8.793,3.454,19.636,3.454c10.848,0,19.638-1.547,19.638-3.454c0-1.12-3.056-2.117-7.774-2.75  c-1.418,1.891-3.659,3.133-6.208,3.133c-2.85,0-5.315-1.547-6.67-3.833C33.617,22.185,25.363,23.692,25.363,25.54z" />
  <path
     id="path853"
     data-reactid="16"
     d="M84.075,54.142c0-8.68-2.868-17.005-8.144-23.829c1.106-1.399,1.41-2.771,1.41-3.854c0-6.574-10.245-9.358-19.264-10.533  c0.209,0.706,0.359,1.439,0.359,2.215c0,0.09-0.022,0.17-0.028,0.26l0,0c-0.028,0.853-0.195,1.667-0.479,2.429  c9.106,1.282,14.508,3.754,14.508,5.63c0,2.644-10.688,6.486-27.439,6.486c-16.748,0-27.438-3.842-27.438-6.486  c0-2.542,9.904-6.183,25.559-6.459c-0.098-0.396-0.159-0.807-0.2-1.223c0.006,0,0.013,0,0.017,0  c-0.017-0.213-0.063-0.417-0.063-0.636c0-1.084,0.226-2.119,0.628-3.058c-6.788,0.129-30.846,1.299-30.846,11.376  c0,1.083,0.305,2.455,1.411,3.854c-5.276,6.823-8.145,15.149-8.145,23.829c0,11.548,5.187,20.107,14.693,25.115  c-0.902,3.146-1.391,7.056,1.111,8.181c2.626,1.178,5.364-2.139,7.111-5.005c4.73,1.261,10.13,1.923,16.161,1.923  c6.034,0,11.428-0.661,16.158-1.922c1.75,2.865,4.493,6.18,7.112,5.004c2.504-1.123,2.014-5.035,1.113-8.179  C78.889,74.249,84.075,65.689,84.075,54.142z M70.39,31.392c5.43,6.046,8.78,14,8.78,22.75c0,20.919-18.582,25.309-34.171,25.309  c-15.587,0-34.17-4.39-34.17-25.309c0-8.75,3.35-16.7,8.781-22.753c5.561,2.643,15.502,4.009,25.389,4.009  C54.886,35.397,64.829,34.031,70.39,31.392z" />
  <path
     id="path855"
     data-reactid="17"
     d="M50.654,23.374c2.892,0,5.234-2.341,5.234-5.233c0-2.887-2.343-5.23-5.234-5.23c-2.887,0-5.231,2.343-5.231,5.23  C45.423,21.032,47.768,23.374,50.654,23.374z" />
  <circle
     id="circle857"
     data-reactid="18"
     r="3.595"
     cy="10.089"
     cx="62.905" />
  <circle
     id="circle859"
     data-reactid="19"
     r="2.73"
     cy="5.048"
     cx="52.616" />
</svg>
